<?xml version="1.0" encoding="utf-8"?>
<!-- Generator: Adobe Illustrator 27.0.1, SVG Export Plug-In . SVG Version: 6.00 Build 0)  -->
<svg version="1.1" id="Layer_1" xmlns="http://www.w3.org/2000/svg" xmlns:xlink="http://www.w3.org/1999/xlink" x="0px" y="0px"
	 viewBox="0 0 792 612" style="enable-background:new 0 0 792 612;" xml:space="preserve">
<style type="text/css">
	.st0{fill-rule:evenodd;clip-rule:evenodd;fill:#3B63AA;}
	.st1{fill:#3B63AA;}
	.st2{fill-rule:evenodd;clip-rule:evenodd;fill:#42B549;}
	.st3{fill:#42B549;}
</style>
<g>
	<path class="st0" d="M263.74,242.19c0.15-3.72,1.5-8.11,4.91-11.7c5.13-5.4,12.31-4.69,16.3,1.58c4.37,6.89,3.06,17.65-2.85,23.27
		c-5.12,4.87-12.21,3.83-15.92-2.34C264.56,250.31,263.68,246.86,263.74,242.19"/>
	<path class="st1" d="M323.5,251.89c0,0-66.3,0-75.36,61.04c0,0,19.8-32.84,30.31-38.3c0,0-1.92,52.62-44.62,100.83
		c0,0,19.15,5.89,25.89,9.68c0,0,29.05-64.83,21.47-112.62l2.1-1.89c0,0,45.68,71.14-3.79,113.67c0,0,82.09-31.36,4.84-114.72
		C284.35,269.57,306.12,254.12,323.5,251.89"/>
</g>
<g>
	<path class="st2" d="M325.32,244.8c0.13-5.67,1.77-10.46,5.78-14.21c6.7-6.27,14.99-4.12,17.58,4.72
		c2.01,6.85,0.58,13.23-4.19,18.62c-2.85,3.23-6.44,5.3-10.92,4.04c-4.82-1.36-6.99-5.15-7.94-9.77
		C325.4,247,325.41,245.75,325.32,244.8"/>
	<path class="st3" d="M389.5,280.76c0,0-53.9-38.61-96.81,5.74c0,0,36.33-15.02,48.07-13.35c0,0,8.21,81.68-54.16,98.1
		c0,0,85.31,7.58,55.63-98.3l1.55-0.11c0,0,25.39,45.69,14.23,111.14c0,0,7.79-1.77,26.94-4.09c0,0-5.47-63.99-38.73-107.57
		C346.23,272.31,374.08,272.45,389.5,280.76"/>
</g>
<g>
	<path d="M454.49,350.65c-0.53,2.71-0.99,5.65-1.4,8.82c-7.38,1.5-14.13,2.25-20.27,2.25c-5.47,0-10.74-0.83-15.83-2.5
		c-5.09-1.67-9.52-4.24-13.28-7.72c-3.76-3.48-6.5-7.58-8.23-12.3c-1.72-4.72-2.58-9.77-2.58-15.16c0-5.76,0.96-11.32,2.86-16.68
		c1.91-5.35,4.8-9.89,8.68-13.62c3.88-3.72,8.55-6.51,14.04-8.37c5.48-1.85,11.22-2.78,17.21-2.78c6.44,0,12.86,0.67,19.26,2.02
		c0.04,1.9,0.24,4.8,0.62,8.7c-4.16-1.27-7.69-2.12-10.61-2.55c-2.92-0.43-5.69-0.65-8.31-0.65c-4.46,0-8.72,0.68-12.8,2.05
		c-4.08,1.37-7.69,3.55-10.84,6.54c-3.14,3-5.55,6.67-7.22,11.03c-1.67,4.36-2.5,8.9-2.5,13.62c0,4.38,0.66,8.53,1.99,12.47
		c1.33,3.93,3.37,7.25,6.12,9.97c2.75,2.71,6.02,4.79,9.8,6.23c3.78,1.44,8.03,2.16,12.75,2.16
		C439.89,354.19,446.74,353.01,454.49,350.65z"/>
	<path d="M466.45,360.48l1.4-24.43l1.29-33.3l0.34-18.92l5.11,0.06c1.27,0,2.94-0.02,5-0.06l-1.23,19.51l-0.45,11.64
		c0.9-1.61,1.68-2.89,2.33-3.84c0.65-0.95,1.5-1.91,2.53-2.86c1.03-0.95,2.11-1.77,3.23-2.44c1.12-0.67,2.38-1.26,3.76-1.77
		c1.38-0.5,3.05-0.92,5-1.26c1.95-0.34,3.99-0.51,6.12-0.51c3.18,0,6.22,0.36,9.12,1.07c2.9,0.71,5.39,1.89,7.47,3.53
		c2.08,1.65,3.5,3.61,4.27,5.89c0.77,2.28,1.15,4.6,1.15,6.96c0,0.94-0.02,2.17-0.05,3.7c-0.11,2.32-0.26,5.03-0.44,8.13
		l-0.94,20.64c-0.11,2.24-0.19,4.99-0.22,8.25c-2.18-0.07-3.84-0.11-5.01-0.11c-1.28,0-3.06,0.04-5.34,0.11
		c0.41-4.04,0.89-10.4,1.44-19.07s0.82-14.7,0.82-18.06c0-2.99-0.54-5.47-1.63-7.43c-1.09-1.96-2.88-3.47-5.39-4.51
		c-2.51-1.05-5.3-1.57-8.37-1.57c-2.81,0-5.43,0.43-7.86,1.29c-2.21,0.79-4.09,1.89-5.64,3.31s-2.8,3.16-3.73,5.22
		c-1.01,2.21-1.72,4.43-2.13,6.67c-0.64,3.55-1.09,8.49-1.35,14.81c-0.15,3.78-0.35,10.23-0.62,19.35c-2.1-0.07-3.67-0.11-4.72-0.11
		C470.7,360.37,468.96,360.41,466.45,360.48z"/>
	<path d="M539.67,312.64c0.34-1.65,0.69-4.08,1.07-7.3c4.49-1.16,8.39-1.96,11.71-2.39c3.31-0.43,6.54-0.65,9.69-0.65
		c3.37,0,6.52,0.31,9.46,0.93c2.94,0.62,5.38,1.62,7.33,3c1.95,1.39,3.24,2.98,3.88,4.77c0.64,1.8,0.95,3.73,0.95,5.78
		c0,2.58-0.2,6.92-0.59,13c-0.39,6.08-0.69,11.71-0.89,16.87c-0.21,5.17-0.31,9.77-0.31,13.81c-2.02-0.07-3.67-0.11-4.95-0.11
		c-1.2,0-2.9,0.04-5.12,0.11l1.19-15.33l0.85-18.14c-1.31,1.01-2.3,1.72-2.95,2.13c-0.66,0.41-1.39,0.8-2.22,1.15
		c-0.82,0.36-1.73,0.69-2.72,1.01c-0.99,0.32-2.92,0.87-5.79,1.66c-2.87,0.79-4.9,1.39-6.1,1.8c-2.58,0.82-4.63,1.65-6.12,2.47
		c-1.5,0.82-2.75,1.72-3.77,2.7c-1.01,0.97-1.72,1.95-2.13,2.92c-0.49,1.2-0.73,2.45-0.73,3.76c0,2.02,0.6,3.78,1.8,5.28
		c1.2,1.5,2.7,2.54,4.52,3.12c1.82,0.58,4,0.87,6.54,0.87c1.57,0,3.22-0.11,4.94-0.33c1.72-0.22,4.02-0.78,6.91-1.69
		c-0.52,1.45-1.12,3.68-1.8,6.68c-2.73,0.52-4.96,0.85-6.68,0.98c-1.72,0.13-3.35,0.2-4.89,0.2c-5.13,0-9.13-0.6-12.02-1.8
		c-2.88-1.2-5.04-3.02-6.46-5.47c-1.42-2.45-2.13-5.12-2.13-8c0-1.68,0.25-3.24,0.76-4.66c0.5-1.42,1.19-2.71,2.05-3.87
		c0.86-1.16,2.09-2.32,3.68-3.48c1.59-1.16,3.26-2.11,5-2.86c1.74-0.75,3.77-1.49,6.09-2.22c2.32-0.73,6.05-1.71,11.18-2.95
		c1.65-0.37,3.05-0.76,4.21-1.15c1.16-0.39,2.19-0.78,3.09-1.15c0.9-0.37,1.68-0.81,2.36-1.32c0.67-0.51,1.29-1.12,1.85-1.85
		c0.56-0.73,0.97-1.47,1.24-2.22c0.26-0.75,0.39-1.5,0.39-2.25c0-1.83-0.6-3.41-1.8-4.72c-1.2-1.31-2.76-2.23-4.69-2.75
		c-1.93-0.52-4.2-0.79-6.82-0.79c-2.43,0-4.93,0.2-7.5,0.59c-2.57,0.39-4.77,0.86-6.63,1.4
		C544.75,310.74,542.44,311.55,539.67,312.64z"/>
	<path d="M596.83,360.48c1.79-23.47,2.72-42.43,2.8-56.88l5.06,0.06c1.24,0,2.87-0.02,4.89-0.06l-0.74,11.23
		c0.94-1.57,1.68-2.78,2.25-3.62c0.56-0.84,1.31-1.73,2.25-2.67c0.94-0.93,2.04-1.8,3.31-2.61c1.27-0.8,2.77-1.48,4.49-2.02
		c1.72-0.54,3.47-0.95,5.25-1.21c1.78-0.26,3.55-0.39,5.31-0.39c3.22,0,6.33,0.39,9.32,1.18c3,0.79,5.46,2.07,7.39,3.85
		c1.93,1.78,3.22,3.77,3.88,5.98c0.66,2.21,0.98,4.59,0.98,7.13c0,0.49-0.02,1.42-0.06,2.81c-0.04,1.38-0.11,3.2-0.22,5.45
		l-1.11,23.53c-0.07,2.25-0.13,5-0.17,8.25c-1.69-0.07-3.28-0.11-4.78-0.11c-1.84,0-3.56,0.04-5.17,0.11
		c0.38-4.53,0.66-8.89,0.85-13.08l0.74-13.08c0.23-4.49,0.34-7.88,0.34-10.16c0-3.29-0.56-5.92-1.69-7.89
		c-1.12-1.97-2.92-3.48-5.4-4.55c-2.47-1.07-5.25-1.6-8.32-1.6c-4.35,0-8.08,1.03-11.19,3.09c-2.85,1.91-5.06,4.62-6.63,8.14
		c-1.09,2.51-1.86,6.21-2.3,11.12c-0.57,5.88-0.97,15.22-1.2,28.02c-2.09-0.07-3.71-0.11-4.86-0.11
		C600.93,360.37,599.18,360.41,596.83,360.48z"/>
	<path d="M708.35,351.94c-0.08,0.6-0.27,1.71-0.59,3.34c-0.32,1.63-0.59,3.23-0.81,4.8c-2.73,0.64-5.36,1.07-7.89,1.29
		c-2.53,0.22-4.75,0.34-6.65,0.34c-4.04,0-7.78-0.54-11.2-1.63c-3.43-1.09-6.41-2.87-8.96-5.36c-2.55-2.49-4.42-5.58-5.62-9.26
		c-1.2-3.69-1.8-7.57-1.8-11.65c0-5.5,0.97-10.73,2.92-15.67s5.02-8.82,9.21-11.62c4.19-2.81,9.9-4.21,17.13-4.21
		c5.32,0,10.5,0.71,15.55,2.13c0.22,3.18,0.43,5.8,0.62,7.86c-3.56-1.12-6.46-1.88-8.7-2.27c-2.25-0.39-4.32-0.59-6.23-0.59
		c-3.29,0-6.24,0.6-8.84,1.8c-2.6,1.2-4.82,2.9-6.65,5.11c-1.83,2.21-3.15,4.83-3.96,7.86c-0.81,3.03-1.21,6.12-1.21,9.26
		c0,4.23,0.65,7.94,1.97,11.12c1.31,3.18,3.6,5.64,6.88,7.38c3.28,1.74,6.95,2.61,11.03,2.61
		C698.51,354.58,703.11,353.7,708.35,351.94z"/>
	<path d="M767.37,351.55c-0.45,2.06-0.9,4.68-1.35,7.86c-3.59,0.9-6.71,1.51-9.35,1.82c-2.64,0.32-5.27,0.48-7.89,0.48
		c-4.68,0-8.88-0.56-12.61-1.68c-3.73-1.12-6.92-3.08-9.57-5.87c-2.66-2.79-4.57-5.98-5.73-9.57c-1.16-3.59-1.74-7.39-1.74-11.4
		c0-5.58,1.07-10.75,3.2-15.53c2.13-4.77,5.34-8.53,9.63-11.26c4.29-2.73,9.72-4.1,16.31-4.1c3.41,0,6.66,0.5,9.77,1.49
		c3.11,0.99,5.69,2.5,7.75,4.52c2.06,2.02,3.65,4.52,4.77,7.5c1.12,2.98,1.69,6.22,1.69,9.74c0,1.35-0.11,2.66-0.34,3.93h-42.84
		c-0.15,2.06-0.22,3.63-0.22,4.72c0,3.93,0.82,7.55,2.47,10.87c1.65,3.31,4.08,5.82,7.3,7.52c3.22,1.7,6.92,2.56,11.12,2.56
		C754.57,355.15,760.44,353.95,767.37,351.55z M729.52,324.82h33.47c-0.04-2.36-0.19-4.19-0.45-5.5c-0.26-1.31-0.75-2.67-1.46-4.07
		c-0.71-1.4-1.68-2.62-2.89-3.65c-1.22-1.03-2.68-1.82-4.38-2.36c-1.7-0.54-3.55-0.81-5.53-0.81c-2.13,0-4.17,0.3-6.09,0.9
		c-1.93,0.6-3.63,1.42-5.11,2.47c-1.48,1.05-2.73,2.27-3.76,3.68c-1.03,1.4-1.8,2.76-2.3,4.07
		C730.51,320.86,730.01,322.61,729.52,324.82z"/>
</g>
<g>
	<path d="M19.74,360.42l1.4-22.07l1.51-43.41c0.07-2.43,0.11-4.89,0.11-7.36l-0.06-3.82l5.65,0.06l5.42-0.06l-1.1,20.5l-1.65,45.76
		l-0.17,10.39l-5.45-0.11C24.9,360.31,23,360.35,19.74,360.42z M32.88,319.74l14.17-15.93l11.98-13.97
		c0.86-1.05,2.47-3.07,4.83-6.06l6.41,0.06l6.13-0.06l-27.42,30.24l-4.73,5.44l3.1,3.99c0.67,0.86,5.38,6.52,14.13,16.97l16.89,20
		c-3.26-0.07-5.41-0.11-6.46-0.11c-1.69,0-3.99,0.04-6.91,0.11l-5.57-7.53L32.88,319.74z"/>
	<path d="M85.84,360.42l0.97-14.15l1.09-24.15l0.46-18.59l5.17,0.06l5.06-0.06c-0.42,5.84-0.8,11.95-1.15,18.33
		c-0.34,6.38-0.62,13.36-0.83,20.92c-0.21,7.56-0.31,13.44-0.31,17.63c-2.36-0.07-4.05-0.11-5.06-0.11
		C90.3,360.31,88.5,360.35,85.84,360.42z M88.42,291.3c0.11-3.52,0.17-6.18,0.17-7.97c2.06,0.08,3.88,0.11,5.45,0.11
		c1.98,0,3.78-0.04,5.39-0.11c-0.08,1.16-0.19,3.82-0.34,7.97c-2.02-0.04-3.76-0.06-5.22-0.06
		C92.41,291.24,90.59,291.26,88.42,291.3z"/>
	<path d="M164.56,360.53c-2.21-0.08-3.74-0.11-4.61-0.11c-0.94,0-2.57,0-4.89,0l0.67-12.13c-1.2,2.1-2.23,3.72-3.09,4.86
		c-0.86,1.14-1.88,2.22-3.06,3.23c-1.18,1.01-2.54,1.92-4.1,2.72c-1.55,0.81-3.28,1.43-5.19,1.88s-3.93,0.67-6.06,0.67
		c-3.63,0-7.03-0.66-10.19-1.97c-3.16-1.31-5.85-3.18-8.06-5.62c-2.21-2.43-3.8-5.27-4.77-8.51c-0.97-3.24-1.46-6.62-1.46-10.14
		c0-4.72,0.92-9.36,2.75-13.93c1.83-4.57,4.43-8.34,7.78-11.31c3.35-2.98,7.14-5.04,11.37-6.21c4.23-1.16,8.72-1.74,13.47-1.74
		c3.29,0,7.21,0.38,11.73,1.12c0.19-4.08,0.28-7.47,0.28-10.16c0-3.89-0.02-7.04-0.06-9.43l5.11,0.06c1.27,0,2.98-0.02,5.11-0.06
		l-1.63,31.72l-1.12,36.33V360.53z M156.47,310.44c-2.25-0.67-4.16-1.1-5.75-1.29c-1.59-0.19-3.13-0.28-4.63-0.28
		c-3.59,0-7.03,0.51-10.3,1.54c-3.28,1.03-6.16,2.72-8.65,5.08s-4.41,5.35-5.75,8.98c-1.35,3.63-2.02,7.19-2.02,10.67
		s0.64,6.73,1.91,9.74c1.27,3.01,3.25,5.37,5.92,7.08c2.68,1.7,5.79,2.55,9.35,2.55c2.13,0,4.08-0.29,5.84-0.87
		c1.76-0.58,3.36-1.43,4.8-2.55s2.8-2.64,4.07-4.55c1.27-1.91,2.28-4.12,3.03-6.63c0.64-2.21,1.1-5.18,1.4-8.93
		c0.15-1.83,0.32-5.37,0.51-10.61L156.47,310.44z"/>
	<path d="M177.03,359.35l-0.34-4.13c0-0.45-0.15-1.88-0.45-4.3c5.76,2.51,11.08,3.76,15.95,3.76c2.54,0,4.7-0.33,6.46-1.01
		s3.08-1.67,3.96-2.99c0.88-1.33,1.32-2.7,1.32-4.11c0-0.78-0.12-1.57-0.37-2.35c-0.24-0.78-0.61-1.54-1.1-2.27
		c-0.49-0.73-1.21-1.53-2.16-2.41c-0.96-0.88-2.94-2.53-5.95-4.96c-3.01-2.43-5.3-4.33-6.85-5.7c-1.55-1.37-2.88-2.77-3.99-4.21
		c-1.1-1.44-1.92-2.89-2.44-4.35c-0.52-1.46-0.79-2.94-0.79-4.44c0-2.39,0.76-4.72,2.27-6.96c1.52-2.25,3.71-3.92,6.57-5.03
		c2.86-1.1,6.22-1.66,10.08-1.66c4.3,0,9.04,0.51,14.21,1.52c0.15,2.92,0.34,5.6,0.56,8.03c-4.19-1.72-8.33-2.58-12.41-2.58
		c-2.21,0-4.26,0.29-6.15,0.87c-1.89,0.58-3.28,1.45-4.16,2.61c-0.88,1.16-1.32,2.43-1.32,3.82c0,0.9,0.15,1.76,0.45,2.58
		c0.3,0.82,0.83,1.71,1.6,2.67c0.77,0.96,1.69,1.9,2.78,2.84c1.08,0.94,3.25,2.7,6.49,5.28c3.24,2.58,5.46,4.49,6.65,5.73
		c1.2,1.24,2.23,2.51,3.09,3.82c0.86,1.31,1.49,2.61,1.88,3.9c0.39,1.29,0.59,2.61,0.59,3.96c0,2.62-0.78,5.05-2.33,7.3
		c-1.55,2.25-3.87,3.99-6.93,5.22c-3.07,1.23-6.51,1.85-10.33,1.85c-1.61,0-3.5-0.1-5.67-0.31c-2.17-0.21-4.02-0.45-5.53-0.73
		C181.15,360.34,179.27,359.91,177.03,359.35z"/>
	<path d="M241.21,283.77c-1.12,1.91-2.34,3.91-3.65,6.01c-1.31,2.1-2.38,3.86-3.2,5.28l-4.32,7.52c-1.35-0.07-2.27-0.11-2.75-0.11
		c-0.64,0-1.54,0.04-2.7,0.11c2.7-7.67,4.77-13.94,6.23-18.81c2.13,0.04,3.78,0.06,4.94,0.06
		C237.19,283.83,239,283.81,241.21,283.77z"/>
</g>
</svg>
